<svg id="Layer_1" data-name="Layer 1" xmlns="http://www.w3.org/2000/svg" xmlns:xlink="http://www.w3.org/1999/xlink" viewBox="0 0 4500 2500"><defs><style>.cls-1{fill:none;}.cls-2{fill:#aed3f0;}.cls-3{fill:#c3dcf3;}.cls-10,.cls-11,.cls-12,.cls-13,.cls-14,.cls-15,.cls-17,.cls-18,.cls-22,.cls-23,.cls-24,.cls-25,.cls-26,.cls-27,.cls-3,.cls-30,.cls-34,.cls-35,.cls-36,.cls-37,.cls-40,.cls-41,.cls-42,.cls-43,.cls-44,.cls-45,.cls-5,.cls-6,.cls-7,.cls-8,.cls-9{fill-rule:evenodd;}.cls-4{clip-path:url(#clip-path);}.cls-33,.cls-5{fill-opacity:0.25;}.cls-6{fill:#eef5fc;}.cls-7{fill:#ddebf9;}.cls-15,.cls-8{fill:#44ae9e;}.cls-17,.cls-27,.cls-9{fill:#e6c53d;}.cls-10,.cls-18{fill:#ec6198;}.cls-11,.cls-24{fill:#83b6e9;}.cls-12{fill:#fafcfe;}.cls-13{fill:#cae0f6;}.cls-14,.cls-16{fill:#357fc3;}.cls-15,.cls-17,.cls-18,.cls-19,.cls-20,.cls-21,.cls-24,.cls-25{fill-opacity:0.67;}.cls-19{fill:#f193b9;}.cls-20{fill:#edd77c;}.cls-21{fill:#7fc7bd;}.cls-22{fill:#8ebbe5;}.cls-23{fill-opacity:0.24;}.cls-25,.cls-33{fill:#fff;}.cls-26,.cls-28{fill:#134f7b;}.cls-27,.cls-30{fill-opacity:0.17;}.cls-29{fill:#144f7b;}.cls-30{fill:#24639e;}.cls-31{clip-path:url(#clip-path-2);}.cls-32{fill:url(#linear-gradient);}.cls-34{fill:#334c8e;}.cls-35{fill:#4365bc;}.cls-36{fill:#273a6c;}.cls-37{fill:url(#linear-gradient-2);}.cls-38{fill:url(#linear-gradient-3);}.cls-39{fill:url(#linear-gradient-4);}.cls-40{fill:url(#linear-gradient-5);}.cls-41{fill:#2d447f;}.cls-42{fill:#8da2d6;}.cls-43{fill:#5877c4;}.cls-44{fill:#334d8f;}.cls-45{fill:url(#linear-gradient-6);}.cls-46{fill:url(#linear-gradient-7);}</style><clipPath id="clip-path"><rect class="cls-1" width="4500" height="2500"/></clipPath><clipPath id="clip-path-2"><ellipse class="cls-1" cx="2244.23" cy="1141.72" rx="804.96" ry="807.54"/></clipPath><linearGradient id="linear-gradient" x1="1290.57" y1="1789.99" x2="1291.76" y2="1789" gradientTransform="matrix(-8053.47, -1268.4, -9313.28, 1096.83, 27066514.83, -325192.91)" gradientUnits="userSpaceOnUse"><stop offset="0" stop-color="#fff" stop-opacity="0"/><stop offset="1" stop-color="#fff"/></linearGradient><linearGradient id="linear-gradient-2" x1="1290.46" y1="1790.66" x2="1291.65" y2="1790.66" gradientTransform="matrix(90.3, -1083.62, -1083.62, -90.3, 1827952.39, 1562348.2)" xlink:href="#linear-gradient"/><linearGradient id="linear-gradient-3" x1="1292.44" y1="1791.72" x2="1293.63" y2="1791.72" gradientTransform="matrix(256.85, -219.17, -219.17, -256.85, 64467.29, 745444.88)" xlink:href="#linear-gradient"/><linearGradient id="linear-gradient-4" x1="1294.27" y1="1793.07" x2="1295.46" y2="1793.16" gradientTransform="matrix(151.61, -120.02, -129.35, -140.63, 39721.79, 409573.69)" xlink:href="#linear-gradient"/><linearGradient id="linear-gradient-5" x1="1289.59" y1="1789.12" x2="1290.78" y2="1789.12" gradientTransform="matrix(-268.56, 737.42, 737.42, 268.56, -968876.51, -1429481.51)" gradientUnits="userSpaceOnUse"><stop offset="0" stop-opacity="0"/><stop offset="1"/></linearGradient><linearGradient id="linear-gradient-6" x1="1290.86" y1="1790.88" x2="1292.05" y2="1790.87" gradientTransform="matrix(-214.06, -1121.21, -1141.17, 210.32, 2322123.76, 1071497.02)" xlink:href="#linear-gradient"/><linearGradient id="linear-gradient-7" x1="1293.48" y1="1791.62" x2="1294.66" y2="1791.66" gradientTransform="matrix(289.58, -241.75, -250.29, -279.7, 75145.26, 814988.48)" xlink:href="#linear-gradient"/></defs><g id="c87"><rect class="cls-2" width="4500" height="2500"/><path class="cls-3" d="M825.53,2500q9.4-21.7,20.11-42.25c123.67-237.16,443.5-414.77,686.14-497.1,244.74-83,582.24-98.84,832.36-33.78,182.11,47.36,369.13,76.28,549.93,127.11,390.31,109.76,881.58,337.74,1294.46,218.52,95.47-27.57,204.66-70.95,291.47-130V2500ZM4500,521.47C4365.74,411.6,4198.51,367,4029.29,335.25,3237.41,186.68,2683.62,499.12,1921.58,587.41,1325.76,656.43,746.07,408.56,321,0H4500Z"/><rect class="cls-1" width="4500" height="2500"/><g class="cls-4"><polygon class="cls-5" points="1776.08 1324.74 469.8 603.93 -1110.3 1969.8 195.98 2690.61 1776.08 1324.74"/><polygon class="cls-6" points="1791.45 1302.65 485.17 581.85 -1094.92 1947.71 211.36 2668.52 1791.45 1302.65"/><path class="cls-7" d="M896.27,1856.83c29.73-25.62,28.4-60.54-3-77.92L528.47,1576.76c-31.37-17.38-81-10.69-110.72,14.93L150.94,1821.62c-29.74,25.63-28.41,60.54,3,77.92l364.83,202.15c31.38,17.39,81,10.69,110.72-14.93Z"/><path class="cls-8" d="M348.94,1762l-22.46-12.45-130,112L219,1874Zm14.56,113L341,1862.51l-55.84,48.13,22.47,12.45Zm177.82,97.89-22.47-12.45-56.3,48.51L485,2021.36Zm116.13,25.48L635,1985.88l-83.74,72.17,22.46,12.45ZM529.7,1920.07l-22.46-12.44-89,76.71,22.47,12.45Zm-177-98.61L330.27,1809l-89.42,77.06,22.47,12.45Zm107.07,33.29-22.47-12.45-107.81,92.9L352,1947.65Zm179.45,96.47-22.47-12.45-109.9,94.71,22.47,12.45Zm-113-91-22.47-12.44-130,112,22.47,12.45Z"/><path class="cls-8" d="M463.61,1663.14l-22.47-12.45-77.75,67,22.47,12.45ZM568.8,1698l-22.46-12.44-94.27,81.23,22.47,12.45Zm202.9,76.28-22.47-12.45L629.43,1865.1l22.47,12.45ZM777.37,1895l-22.46-12.45-36.79,31.71,22.46,12.45Zm-99.94-102.21L655,1780.33l-69.87,60.2L607.56,1853ZM555.19,1647l-22.46-12.45-125,107.72,22.47,12.45Zm5,121.24-22.47-12.45-41.33,35.62,22.47,12.44ZM755.51,1851,733,1838.6l-59.27,51.07,22.47,12.45Zm-167.78-43.75-22.46-12.45L540.75,1816l22.47,12.45Z"/><path class="cls-7" d="M477.7,2218.65c29.74-25.63,28.41-60.54-3-77.92L109.9,1938.58c-31.37-17.39-81-10.69-110.71,14.93l-266.82,229.93c-29.73,25.62-28.41,60.54,3,77.92l364.84,202.15c31.37,17.38,81,10.69,110.72-14.94Z"/><path class="cls-9" d="M-141.61,2185.8l-22.47-12.45-58,50,22.47,12.45Zm86.55,51-22.47-12.45-55.84,48.12,22.46,12.45Zm177.81,97.88-22.47-12.45L44,2370.73l22.47,12.45Zm116.14,25.48-22.47-12.44-83.75,72.17,22.47,12.44Zm-127.75-78.25-22.47-12.45-89,76.72,22.46,12.45Zm-177-98.61-22.46-12.45-89.42,77.06,22.46,12.44Zm35.08,95.32-22.46-12.45L-89,2297l22.46,12.45Zm179.46,96.48-22.47-12.45L88.33,2395.3l22.47,12.45Zm-113-91-22.46-12.45-58,50L-22.23,2334Z"/><path class="cls-9" d="M18.74,2047.62l-22.47-12.45-51.45,44.34L-32.71,2092Zm105.2,34.9-22.47-12.44-68,58.56L56,2141.09Zm202.9,76.28-22.47-12.45-93.5,80.57,22.47,12.45Zm32,98-22.47-12.45-36.79,31.71L322,2288.5Zm-126.25-79.55-22.46-12.44-43.57,37.54L189,2214.8ZM46.29,2086.66l-22.47-12.45-34.65,29.87,22.46,12.44Zm69.06,66.05-22.47-12.45-15,12.95,22.46,12.45Zm195.3,82.82-22.47-12.45-33,28.41,22.47,12.45Zm-141.48-66.42-22.47-12.45-24.51,21.12,22.46,12.45Z"/><path class="cls-7" d="M365.2,1563.79c29.74-25.63,28.41-60.54-3-77.92L-2.6,1283.71c-31.37-17.38-81-10.68-110.71,14.94l-266.81,229.93c-29.74,25.62-28.42,60.54,3,77.92l364.83,202.15c31.37,17.38,81,10.69,110.72-14.94Z"/><path class="cls-10" d="M-182.12,1468.91l-22.47-12.45-130,112,22.47,12.45Zm14.56,113L-190,1569.47l-55.84,48.12,22.46,12.45ZM10.25,1679.8l-22.46-12.45-56.3,48.52L-46,1728.32Zm70.24,65L58,1732.38,20.17,1765l22.47,12.45Zm-127.75-78.25-22.46-12.45-43.13,37.17,22.46,12.45Zm-177-98.62-22.47-12.44-43.52,37.5,22.46,12.45Zm107.07,33.29-22.47-12.45-61.91,53.36,22.46,12.45ZM62.3,1697.73l-22.46-12.45-64,55.16,22.47,12.44Zm-112.95-91-22.47-12.45-84.07,72.45,22.46,12.45Z"/><path class="cls-10" d="M-67.46,1370.1l-22.47-12.45-77.75,67,22.47,12.45Zm30.13,99.59-22.47-12.45L-79,1473.78l22.47,12.45ZM165.57,1546l-22.47-12.45-44.73,38.55,22.47,12.45Zm80.74,56-22.47-12.45-36.79,31.71,22.47,12.44ZM191,1461.17l-22.47-12.45L54,1547.49l22.47,12.45Zm-241.91-42.53-22.46-12.45-49.93,43,22.46,12.44Zm80.09,56.54L6.68,1462.73l-41.33,35.62,22.47,12.45ZM224.45,1558,202,1545.55l-59.27,51.08,22.47,12.45ZM56.67,1514.25,34.2,1501.8,9.69,1522.92l22.47,12.45Z"/><polygon class="cls-11" points="1092.77 1778.36 -52.57 1146.36 -80.04 1170.11 1065.29 1802.11 1092.77 1778.36"/><polygon class="cls-12" points="1428.51 1488.14 283.17 856.14 -63.8 1156.07 1081.53 1788.07 1428.51 1488.14"/><polygon class="cls-13" points="1454.62 1465.56 309.29 833.56 274.03 864.04 1419.36 1496.04 1454.62 1465.56"/><polygon class="cls-14" points="1077.57 1706.74 105.08 1170.12 99.63 1174.83 1072.13 1711.45 1077.57 1706.74"/><path class="cls-15" d="M1063,1653.87,983.23,1583a2,2,0,0,1-.72-1.23l-26.7-164.55-279.56,7.45c-1.82.06-3.29-.8-3.51-2.07l-22.77-127-65.61,2.55c-2.14.08-3.75-1.08-3.6-2.61l8.13-81.78L418.06,1264a5.07,5.07,0,0,1-3.62-.2,2.22,2.22,0,0,1-1.35-2.31l26.64-169.2-115-70.29c-1.54-.92-1.53-2.71,0-3.94a5.21,5.21,0,0,1,5.58-.54l116.38,71.09a2.14,2.14,0,0,1,1.12,2.18L421.6,1257.13,592.17,1207a5.13,5.13,0,0,1,3.56.17,2.28,2.28,0,0,1,1.44,2.22l-8.25,83,64.92-2.53c1.85-.08,3.35.8,3.58,2.08L680.2,1419l279.6-7.46c1.84,0,3.31.83,3.51,2.11l27,166,79.2,70.35c1.28,1.13.87,2.92-.9,4S1064.31,1655,1063,1653.87Z"/><ellipse class="cls-16" cx="103.43" cy="1174.39" rx="17" ry="11.77" transform="translate(-222.33 41.35) rotate(-11.01)"/><ellipse class="cls-16" cx="1291.28" cy="1516.94" rx="17" ry="11.77" transform="translate(-265.88 274.46) rotate(-11.01)"/><polygon class="cls-14" points="1289.81 1514.91 1066.93 1707.57 1072.83 1710.83 1295.71 1518.17 1289.81 1514.91"/><path class="cls-17" d="M1065.25,1654.89l16-152-171.67,4c-1.94,0-3.43-.92-3.54-2.28l-5.94-80.28-113.36-32.44a3,3,0,0,1-1.74-1.18l-92.77-143.88-155.42,15.09a4.48,4.48,0,0,1-2.9-.63,2.14,2.14,0,0,1-1-2l14.57-121.65L391,1154.93a4,4,0,0,1-3.58-1.16l-87.52-111.46c-1-1.27-.24-3,1.7-3.93s4.33-.59,5.34.67l86.4,110,158.46-17.53a4.55,4.55,0,0,1,3,.59,2.14,2.14,0,0,1,1,2l-14.58,121.72L694.9,1241a3.81,3.81,0,0,1,3.61,1.33L791.78,1387l114.09,32.66a2.53,2.53,0,0,1,2,2.1l5.9,79.47,172.15-4c2.1-.05,3.67,1.11,3.51,2.64l-16.33,154.72c-.17,1.56-2.07,2.91-4.24,3S1065.1,1656.44,1065.25,1654.89Z"/><path class="cls-18" d="M1062.88,1654.38l-57.39-94.26-155-37.46a2.75,2.75,0,0,1-2.19-1.87l-16-71.55-57.91-6.83a3.27,3.27,0,0,1-2.59-1.51l-62-120.6L490.09,1326a3.38,3.38,0,0,1-3.42-1.75l-36.51-97.48-150.29-9.46c-1.71-.1-2.95-1-3.06-2.23l-15-156c-.15-1.52,1.5-3,3.67-3.32s4.07.64,4.21,2.16l14.77,154,149.8,9.42a3.17,3.17,0,0,1,2.93,1.73l36.43,97.26,219.52-5.66a3.53,3.53,0,0,1,3.34,1.53l62.18,120.91,58.37,6.89a3,3,0,0,1,2.75,2l16,71.83,154.49,37.34a3.11,3.11,0,0,1,2,1.27l58,95.2c.81,1.35-.16,3.07-2.19,3.86S1063.71,1655.74,1062.88,1654.38Z"/><ellipse class="cls-19" cx="286.29" cy="1057.7" rx="9.86" ry="6.82" transform="translate(-196.69 74.12) rotate(-11.01)"/><ellipse class="cls-20" cx="304.84" cy="1041.67" rx="9.86" ry="6.82" transform="translate(-193.29 77.37) rotate(-11.01)"/><ellipse class="cls-21" cx="329.21" cy="1020.61" rx="9.86" ry="6.82" transform="translate(-188.82 81.63) rotate(-11.01)"/><path class="cls-11" d="M1360.38,1340.61c9.64-8.34,26-10.43,36.41-4.66l105.63,58.28c10.45,5.77,11.09,17.22,1.46,25.56s-26,10.41-36.4,4.64l-105.63-58.28C1351.4,1360.38,1350.74,1348.94,1360.38,1340.61Z"/><polygon class="cls-5" points="1830.43 1562.13 2919.64 540.92 5039.57 1237.07 3950.35 2258.28 1830.43 1562.13"/><polygon class="cls-6" points="1806.64 1547.77 2895.86 526.56 5015.78 1222.71 3926.57 2243.92 1806.64 1547.77"/><path class="cls-7" d="M2928.91,1752.59c-39.87-13-51-43.57-24.89-68.16l303.92-285.94c26.13-24.58,79.71-34,119.57-20.93l357.72,116.94c39.87,13,51,43.57,24.89,68.16L3406.2,1848.59c-26.13,24.59-79.71,34-119.58,20.93Z"/><path class="cls-8" d="M3459.55,1503.49l18.72-17.61,174.25,57-18.72,17.61Zm25.51,102,18.71-17.61,74.87,24.47L3559.93,1630Zm-148.36,138.8,18.72-17.61,75.48,24.68L3412.18,1769ZM3226,1801.75l18.71-17.6,112.28,36.7-18.71,17.61Zm103.74-106.56,18.71-17.61,119.35,39-18.71,17.6ZM3477,1556l18.71-17.61,119.89,39.19-18.72,17.61Zm-98.53,61.44,18.72-17.61,144.54,47.25L3523,1664.7ZM3227.9,1755.54l18.72-17.61L3394,1786.1l-18.72,17.61Zm83.91-113,18.71-17.61,174.25,57-18.72,17.61Z"/><path class="cls-8" d="M3305.83,1453.23l18.72-17.61,104.23,34.08-18.72,17.61Zm-96,62.27,18.72-17.61,126.38,41.31-18.72,17.61Zm-182,127.82,18.71-17.61,160.61,52.5-18.71,17.61Zm37.41,105.88,18.71-17.61,49.33,16.12-18.72,17.61Zm66.47-118.75,18.71-17.61,93.67,30.62-18.72,17.61Zm73.83-163.17,18.71-17.61,167.58,54.78-18.71,17.61Zm38.29,106.17,18.72-17.61L3318,1574l-18.71,17.61Zm-171.79,131.14,18.72-17.61,79.46,26-18.72,17.61Zm157.41-89,18.71-17.61,32.86,10.75-18.71,17.6Z"/><path class="cls-7" d="M3490.47,1937c-39.86-13-51-43.57-24.88-68.16L3769.5,1582.9c26.13-24.58,79.72-34,119.58-20.93l357.72,116.94c39.86,13,51,43.57,24.88,68.16L3967.77,2033c-26.13,24.59-79.71,34-119.58,20.93Z"/><path class="cls-9" d="M4117.64,1719.45l18.71-17.61,77.73,25.41-18.71,17.61Zm-71,70.44,18.72-17.61,74.87,24.47-18.72,17.61Zm-148.35,138.8,18.72-17.61,75.47,24.68-18.71,17.61Zm-110.68,57.47,18.72-17.6,112.28,36.7-18.72,17.61Zm103.74-106.56,18.72-17.61,119.35,39-18.72,17.6Zm147.22-139.18,18.71-17.61L4177.14,1762l-18.71,17.61Zm-2,93,18.72-17.61,48,15.7-18.71,17.61ZM3886,1971.5l18.72-17.61,50.83,16.62-18.72,17.61Zm83.91-113,18.72-17.61,77.72,25.41-18.71,17.61Z"/><path class="cls-9" d="M3902.65,1649.17l18.72-17.61,69,22.55-18.72,17.61Zm-96,62.26,18.71-17.6,91.12,29.78-18.71,17.61Zm-182,127.82,18.72-17.61,125.35,41L3750,1880.23Zm2.16,94.36,18.71-17.61,49.32,16.12-18.71,17.61Zm101.72-107.23,18.71-17.61,58.41,19.1-18.71,17.6Zm159.69-135.1,18.72-17.61,46.46,15.19-18.72,17.61Zm-47.57,78.1,18.72-17.61,20.16,6.59L3860.82,1776Zm-171.79,131.15,18.72-17.61,44.2,14.45L3713.08,1915ZM3791,1800l18.72-17.61,32.86,10.75-18.71,17.6Z"/><path class="cls-7" d="M3371.73,1337.42c-39.87-13-51-43.57-24.89-68.16l303.91-285.93c26.14-24.59,79.72-34,119.58-20.94l357.72,116.94c39.87,13,51,43.57,24.88,68.16L3849,1433.42c-26.13,24.59-79.71,34-119.58,20.94Z"/><path class="cls-10" d="M3902.37,1088.32l18.72-17.61,174.24,57-18.71,17.61Zm25.51,102,18.71-17.61,74.87,24.47-18.72,17.61Zm-148.36,138.8,18.72-17.61,75.48,24.68L3855,1353.79Zm-49.14,77.59,18.71-17.61,50.75,16.59-18.71,17.61Zm103.73-106.57,18.72-17.61,57.82,18.91-18.71,17.6ZM3981.33,1161l18.71-17.61,58.36,19.08L4039.68,1180Zm-98.53,61.45,18.71-17.61,83,27.13-18.71,17.61Zm-150.55,138.09,18.72-17.61,85.81,28-18.72,17.61Zm83.91-113,18.71-17.61,112.72,36.85-18.72,17.6Z"/><path class="cls-10" d="M3748.65,1038.06l18.71-17.6,104.24,34.07-18.72,17.61Zm4.62,95.17,18.72-17.61,25.74,8.41L3779,1141.64ZM3571.3,1261l18.71-17.6,60,19.6-18.72,17.61Zm-63.23,73,18.71-17.61,49.33,16.12-18.72,17.61Zm6.62-138.41L3533.4,1178l153.52,50.28-18.72,17.61ZM3749,1085l18.71-17.61,66.94,21.88L3816,1106.89Zm-62.35,73.27,18.72-17.61,55.41,18.11-18.72,17.61Zm-171.79,131.14,18.72-17.6,79.45,26-18.71,17.61Zm157.4-89,18.72-17.61,32.86,10.75-18.71,17.6Z"/><path class="cls-7" d="M3933.29,1521.83c-39.86-13-51-43.57-24.88-68.16l303.91-285.94c26.13-24.58,79.71-34,119.58-20.93l357.71,116.94c39.87,13,51,43.57,24.89,68.16l-303.91,285.93c-26.13,24.59-79.71,34-119.58,20.93Z"/><path class="cls-22" d="M4463.94,1272.73l18.72-17.61,174.24,57-18.72,17.61Zm25.5,102,18.72-17.61,74.87,24.47-18.72,17.61Zm-148.35,138.8,18.72-17.61,75.47,24.68-18.72,17.61ZM4230.41,1571l18.72-17.6,112.28,36.7-18.72,17.61Zm103.74-106.56,18.72-17.61,119.35,39-18.72,17.6Zm147.21-139.18,18.72-17.61L4620,1346.83l-18.71,17.61Zm-98.52,61.44,18.71-17.61,144.54,47.25-18.72,17.61Zm-150.55,138.09,18.71-17.61,147.35,48.17L4379.63,1573Zm83.9-113,18.72-17.61,174.24,57-18.71,17.61Z"/><path class="cls-22" d="M4310.21,1222.47l18.72-17.61,104.24,34.08-18.72,17.61Zm-9.63,90.51,18.72-17.61,40,13.07-18.71,17.61Zm-225.16,113.7,18.71-17.61,117.42,38.38-18.72,17.61Zm-5.79,91.76,18.72-17.61,49.32,16.12L4119,1534.56Zm109.67-104.63L4198,1396.2l50.47,16.5-18.71,17.6Zm117-149.06,18.72-17.6,81.2,26.54-18.72,17.61Zm-151.58,44,18.71-17.61,158.92,52.1-18.72,17.61ZM4119.63,1488l18.72-17.61,36.26,11.86-18.72,17.61Zm114.21-103.14,18.71-17.61,32.87,10.75-18.72,17.6Z"/><polygon class="cls-11" points="2698.05 1744.89 3653.06 849.51 3689.92 861.61 2734.9 1757 2698.05 1744.89"/><polygon class="cls-12" points="2247.6 1596.97 3202.61 701.59 3668.14 854.46 2713.12 1749.84 2247.6 1596.97"/><polygon class="cls-13" points="2212.57 1585.47 3167.58 690.08 3214.88 705.62 2259.86 1601 2212.57 1585.47"/><polygon class="cls-14" points="2688.04 1678.44 3498.93 918.18 3506.24 920.58 2695.35 1680.84 2688.04 1678.44"/><path class="cls-15" d="M2684.07,1628.36l56.93-85.55a1.6,1.6,0,0,0,.3-1.29l-31.45-150.17,291.08-79c1.91-.5,3.11-1.7,2.88-2.86l-22-116.6,68.6-17.84c2.24-.59,3.48-2.08,2.77-3.35l-37.71-68.1,194.26-8.83a6.15,6.15,0,0,0,3.66-1.28,1.82,1.82,0,0,0,.58-2.41l-88.16-137.9,93.46-95.8c1.26-1.27.6-2.8-1.43-3.39a6.53,6.53,0,0,0-6,1.23l-94.57,96.92a1.72,1.72,0,0,0-.38,2.22l86.71,135.6-194,8.8A6.22,6.22,0,0,0,3006,1100a1.88,1.88,0,0,0-.7,2.35l38.27,69.1-67.88,17.66c-1.94.49-3.17,1.71-2.95,2.88l22.06,116.64-291.13,79c-1.92.51-3.12,1.72-2.87,2.89l31.74,151.55L2676.06,1627c-.91,1.36.14,2.78,2.35,3.16S2683.17,1629.72,2684.07,1628.36Z"/><ellipse class="cls-16" cx="3502.17" cy="921.36" rx="18.53" ry="10.8" transform="translate(-75.06 357.9) rotate(-5.79)"/><ellipse class="cls-16" cx="2399.5" cy="1579.91" rx="18.53" ry="10.8" transform="translate(-147.1 250.05) rotate(-5.79)"/><polygon class="cls-14" points="2400.29 1577.71 2699.32 1675.9 2694.4 1680.52 2395.37 1582.33 2400.29 1577.71"/><path class="cls-17" d="M2682.16,1629.92l-71.06-126.3,178.56-49c2-.56,3.21-1.85,2.83-3.05l-22.66-71.11,105.32-62.63a2.79,2.79,0,0,0,1.37-1.55l44.12-152.52,165.76-34.46a5.16,5.16,0,0,0,2.76-1.43,1.7,1.7,0,0,0,.33-2.06l-58.65-100.54,167.71-32.88a4.4,4.4,0,0,0,3.28-2.1l50.33-122.94c.57-1.4-.85-2.69-3.17-2.87s-4.68.81-5.27,2.21L3194,988.08l-169.76,33.29a5.33,5.33,0,0,0-2.85,1.41,1.74,1.74,0,0,0-.34,2.08l58.69,100.6-163.94,34.08c-1.69.35-3,1.23-3.25,2.25l-44.37,153.33-106,63c-1.12.67-1.63,1.59-1.36,2.43l22.42,70.4-179.05,49.11c-2.19.61-3.39,2.08-2.68,3.35L2673.89,1632c.73,1.3,3.17,1.88,5.45,1.31S2682.88,1631.21,2682.16,1629.92Z"/><path class="cls-18" d="M2684.42,1628.76l25.42-98.89,146.46-79.68c1.09-.6,1.7-1.46,1.59-2.28l-9.19-66.64,57.3-23.59a3.18,3.18,0,0,0,2.12-2.09l20.73-123,228.76-62.23c1.71-.46,2.89-1.49,2.9-2.55l2.72-95.29,151.66-54.08c1.73-.61,2.68-1.78,2.36-2.86l-40.5-139.24c-.4-1.36-2.63-2.14-5-1.75s-4,1.8-3.56,3.16l40,137.41L3157,1069c-1.44.52-2.38,1.44-2.4,2.39l-2.71,95.07-228.5,62.18c-1.6.42-2.73,1.34-2.9,2.34l-20.8,123.36L2842,1378.15c-1.42.58-2.25,1.57-2.14,2.54l9.24,66.88-146,79.43a3,3,0,0,0-1.56,1.69l-25.67,99.88c-.36,1.41,1.26,2.6,3.64,2.66S2684.05,1630.18,2684.42,1628.76Z"/><ellipse class="cls-19" cx="3271.67" cy="876.51" rx="10.74" ry="6.26" transform="translate(-71.72 334.42) rotate(-5.79)"/><ellipse class="cls-20" cx="3246.78" cy="868.34" rx="10.74" ry="6.26" transform="translate(-71.02 331.87) rotate(-5.79)"/><ellipse class="cls-21" cx="3214.1" cy="857.61" rx="10.74" ry="6.26" transform="translate(-70.1 328.52) rotate(-5.79)"/><path class="cls-11" d="M2265,1448.83c-12.93-4.25-30.52-1.07-39.23,7.1l-88.08,82.58c-8.71,8.17-5.27,18.25,7.66,22.5s30.51,1.06,39.22-7.11l88.08-82.58C2281.34,1463.15,2277.92,1453.07,2265,1448.83Z"/><polygon class="cls-23" points="-26.25 2152.19 1066.9 1099.37 2984.38 2164.82 1891.23 3217.64 -26.25 2152.19"/><polygon class="cls-6" points="-54.56 2160.52 1066.34 1080.98 2980.09 2144.36 1859.19 3223.9 -54.56 2160.52"/><path class="cls-24" d="M2725.7,2115.43c-20.63-11.46-50.25-8.38-66.09,6.88l-531.5,511.88c-15.84,15.26-12,37,8.68,48.43l23.34,13c20.64,11.46,50.25,8.38,66.1-6.88l531.49-511.88c15.85-15.26,12-37-8.67-48.43Z"/><path class="cls-25" d="M2131.94,1761.56c-34.37-19.1-84.27-13.43-111.35,12.66l-882.94,850.35c-27.08,26.08-21.16,62.77,13.22,81.87l468,260c34.37,19.1,84.27,13.43,111.35-12.65l882.93-850.36c27.09-26.08,21.17-62.77-13.21-81.87Z"/><polygon class="cls-26" points="1533.32 2792.46 2350.76 2005.17 2359.09 2009.8 1541.64 2797.08 1533.32 2792.46"/><path class="cls-27" d="M1515,2768.44l806.85-777.07-224.23-124.6c-11.94,5.79-21.23,13.86-22.52,25-3.65,31.55,11,68.76,27.74,97.4,26,44.3,62.06,88.84,1.39,129.3-65.33,43.57-200.85,17.37-242.64,75.44-44.92,62.41,43.57,141.8-48.51,193.22-64,35.73-146.46,35.75-222.53,43.16-51.2,5-100.91,6.75-131.6,42.12-53.83,62-8.25,155.42,16.14,218.44C1481.81,2708.24,1496.88,2746.54,1515,2768.44Z"/><ellipse class="cls-28" cx="2103.35" cy="1869.68" rx="20.73" ry="15.2" transform="matrix(1, -0.02, 0.02, 1, -30.75, 35.18)"/><path class="cls-29" d="M2110.69,1948.68l-4.57-2.54a27.89,27.89,0,0,0,3-3.52,4.53,4.53,0,0,0,.74-3.43,4.92,4.92,0,0,0-1.44-2.34,6.19,6.19,0,0,0-1.17-.95l4.29-4.13,34.14,19-5.28,5.09-23.54-13.08Z"/><path class="cls-29" d="M2157.84,1932c1.53-1.47,1.49-3-.11-4.63a39,39,0,0,0-8.29-5.69,45.93,45.93,0,0,0-9.85-4.39,5.92,5.92,0,0,0-6,1.25c-1.53,1.48-1.55,3-.07,4.58s4.28,3.5,8.39,5.78a45.21,45.21,0,0,0,9.75,4.29C2154.26,1933.89,2156.31,1933.5,2157.84,1932Zm-3.09-15.44q8.46,4.7,11,9.18t-2.46,9.3a14.22,14.22,0,0,1-11.59,4.22q-6.59-.58-15-5.29t-11-9.19q-2.58-4.48,2.43-9.31a14.22,14.22,0,0,1,11.61-4.22Q2146.3,1911.89,2154.75,1916.58Z"/><path class="cls-29" d="M2178.43,1912.19c1.53-1.47,1.49-3-.11-4.63a39,39,0,0,0-8.29-5.69,45.93,45.93,0,0,0-9.85-4.39,5.93,5.93,0,0,0-6,1.25q-2.29,2.22-.07,4.57t8.4,5.79a44.47,44.47,0,0,0,9.74,4.29C2174.85,1914.06,2176.9,1913.67,2178.43,1912.19Zm-3.09-15.44q8.46,4.7,11,9.18t-2.46,9.3a14.22,14.22,0,0,1-11.59,4.22q-6.59-.59-15-5.29t-11-9.19q-2.58-4.48,2.43-9.31a14.22,14.22,0,0,1,11.61-4.22Q2166.9,1892.05,2175.34,1896.75Z"/><path class="cls-29" d="M2171.49,1873.36l5.06-4.88,18.69,10.39-3.23-11.54,6.38-6.15,2.93,12.09,22.89,1.84-6.22,6-15.69-1.55.76,3.66,8.08,4.49-5.07,4.88Z"/><path class="cls-29" d="M2230.34,1833.88a12,12,0,0,1,4.42.75,31.51,31.51,0,0,1,4,1.93l16.14,9-5.28,5.09-16.34-9.08a8.08,8.08,0,0,0-2.77-1,5,5,0,0,0-4.32,1.45q-2.13,2.06-.64,4.12a7.88,7.88,0,0,0,2.53,2l15.28,8.49-5.19,5-15.28-8.49a12.17,12.17,0,0,0-3.68-1.5,4.93,4.93,0,0,0-4.41,1.42q-2.2,2.13-1.1,3.89a7.86,7.86,0,0,0,2.74,2.16l15.44,8.58-5.22,5L2201,1858.55l5-4.83,3.74,2.08a7.81,7.81,0,0,1-1-3.32,6.51,6.51,0,0,1,2.38-4.58,10.6,10.6,0,0,1,5-2.8,12.84,12.84,0,0,1,4.78.08,6,6,0,0,1-.81-4.27,8.57,8.57,0,0,1,2.49-4,11.14,11.14,0,0,1,3.23-2.1A12.09,12.09,0,0,1,2230.34,1833.88Z"/><polygon class="cls-26" points="2169.02 2305.12 2214.87 2260.96 2227.9 2268.2 2182.05 2312.36 2169.02 2305.12"/><polygon class="cls-26" points="2196.85 2320.58 2242.7 2276.42 2255.73 2283.66 2209.88 2327.82 2196.85 2320.58"/><path class="cls-29" d="M2336,2224c2.06-2.6,3.14-4.75,3.22-6.45.08-2.93-2.18-5.7-6.8-8.27a16.75,16.75,0,0,0-11.12-2,39.59,39.59,0,0,0-9.29,3.35Zm-68.58-31.32q-4,4-3.23,7.45t5.46,6.06a15.82,15.82,0,0,0,11.14,1.65,32,32,0,0,0,8.17-3.2Zm94.69,45.69-4.56,4.39L2345.3,2236c-7.11,5.49-13.48,9-19.14,10.43q-15.1,3.82-31.95-5.76l12.72-12.25q8.37,3.69,12.18,4,6,.49,12.57-4l-26.2-14.55-5.3,2.87q-12.43,6.75-22.26,6.9a36.25,36.25,0,0,1-18.5-4.64,30,30,0,0,1-8.92-7.16,18.55,18.55,0,0,1-4-8.32,16.55,16.55,0,0,1,1.44-10.52,39.83,39.83,0,0,1,5.79-7.91l-8.16-4.53,4.46-4.3,8.29,4.6q8.48-7,17-8.89,14.53-4,29.56,3.88l-12.43,12a32.55,32.55,0,0,0-9.36-3.09,14.55,14.55,0,0,0-11.3,3.61l23.38,13q16.24-8,24-9.58a34.94,34.94,0,0,1,24.53,4q15.45,8.6,13.73,20.87c-.69,5-3.2,10-7.59,15Z"/><path class="cls-29" d="M2399.56,2162.73q3.11-3.92,3.22-6.46c.08-2.93-2.18-5.7-6.8-8.26a16.75,16.75,0,0,0-11.12-2,40.14,40.14,0,0,0-9.28,3.36ZM2331,2131.4c-2.67,2.69-3.74,5.16-3.24,7.45s2.31,4.31,5.46,6.06a15.85,15.85,0,0,0,11.15,1.66,32,32,0,0,0,8.16-3.21Zm94.68,45.69-4.55,4.39-12.21-6.78q-10.66,8.22-19.15,10.42-15.11,3.84-32-5.75l12.72-12.26q8.37,3.69,12.18,4,6,.49,12.58-4l-26.2-14.56-5.31,2.87q-12.42,6.76-22.26,6.91a36.18,36.18,0,0,1-18.5-4.65,30.13,30.13,0,0,1-8.92-7.15,18.51,18.51,0,0,1-4-8.33,16.49,16.49,0,0,1,1.43-10.52,39.83,39.83,0,0,1,5.79-7.9l-8.16-4.54,4.47-4.29,8.28,4.6q8.47-7,17-8.89,14.52-4,29.55,3.87l-12.42,12a32.64,32.64,0,0,0-9.36-3.1,14.56,14.56,0,0,0-11.3,3.61l23.37,13q16.25-8,24-9.57a34.92,34.92,0,0,1,24.52,4q15.47,8.6,13.74,20.87c-.7,5-3.21,10-7.6,15Z"/><path class="cls-29" d="M2463.17,2101.47q3.09-3.91,3.22-6.45c.07-2.93-2.19-5.7-6.81-8.27a16.74,16.74,0,0,0-11.12-2,39.55,39.55,0,0,0-9.28,3.35Zm-68.58-31.33c-2.66,2.69-3.73,5.17-3.24,7.46s2.31,4.3,5.46,6.05a15.8,15.8,0,0,0,11.15,1.66,32,32,0,0,0,8.16-3.2Zm94.68,45.7-4.55,4.39-12.21-6.79q-10.66,8.22-19.15,10.43-15.11,3.83-32-5.76l12.72-12.25c5.58,2.46,9.64,3.79,12.18,4q6,.49,12.58-4l-26.2-14.55-5.3,2.86q-12.43,6.77-22.27,6.91a36.21,36.21,0,0,1-18.49-4.64,30.08,30.08,0,0,1-8.93-7.16,18.53,18.53,0,0,1-4-8.32,16.48,16.48,0,0,1,1.43-10.52,40,40,0,0,1,5.8-7.91l-8.16-4.53,4.46-4.3,8.28,4.6c5.66-4.64,11.3-7.59,17-8.89q14.52-4,29.55,3.88l-12.42,12a32.55,32.55,0,0,0-9.36-3.09,14.52,14.52,0,0,0-11.3,3.61l23.37,13q16.24-8,24-9.58a34.86,34.86,0,0,1,24.52,4q15.47,8.58,13.74,20.86c-.7,5-3.21,10-7.6,15Z"/><path class="cls-30" d="M1357.12,2694.44c8.45-15.11,37.21-21.84,57-25.06,53.65-8.71,130.82-5.54,159.23-47.67,20.78-30.8,14.62-73.87,16.54-106.8,4.86-83.78-1-190.33,84.27-256.66,58.41-45.42,194.62-56.82,274.85-72.8,35.09-7,70.91-10.57,98.86-29.49,35.83-24.26,19.6-64.41,51.78-90.73,32.51-26.58,99.38-17.52,122.1-49.76,10.65-15.11,8.22-46.06,13.94-72l86.11,47.85L1506,2777.14Z"/><polygon class="cls-11" points="981.49 2618.18 1964.29 1671.65 1997.56 1690.14 1014.77 2636.67 981.49 2618.18"/><polygon class="cls-12" points="298.65 2238.76 1281.44 1292.23 1977.89 1679.21 995.1 2625.74 298.65 2238.76"/><polygon class="cls-13" points="298.65 2238.76 1281.45 1292.23 1324.15 1315.95 341.35 2262.49 298.65 2238.76"/><polygon class="cls-14" points="978.76 2538.68 1813.25 1734.99 1819.85 1738.66 985.36 2542.35 978.76 2538.68"/><ellipse class="cls-16" cx="1815.96" cy="1739.12" rx="17.44" ry="12.79" transform="translate(-28.62 30.39) rotate(-0.95)"/><ellipse class="cls-16" cx="449.98" cy="2240.19" rx="17.44" ry="12.79" transform="matrix(1, -0.02, 0.02, 1, -37.13, 7.78)"/><polygon class="cls-14" points="458.16 2241.7 989.57 2536.98 984.5 2541.86 453.09 2246.58 458.16 2241.7"/><polygon class="cls-8" points="945.07 2416.64 1003.49 2360.37 1079.58 2402.65 1021.16 2458.92 945.07 2416.64"/><polygon class="cls-22" points="870.17 2375.02 928.59 2318.76 1004.68 2361.03 946.26 2417.3 870.17 2375.02"/><polygon class="cls-22" points="795.27 2333.41 853.69 2277.14 929.78 2319.41 871.36 2375.68 795.27 2333.41"/><polygon class="cls-9" points="720.37 2291.79 778.79 2235.52 854.88 2277.8 796.46 2334.07 720.37 2291.79"/><polygon class="cls-9" points="645.47 2250.17 703.89 2193.9 779.98 2236.18 721.56 2292.45 645.47 2250.17"/><polygon class="cls-10" points="570.57 2208.55 628.99 2152.28 705.08 2194.56 646.66 2250.83 570.57 2208.55"/><polygon class="cls-8" points="1052.05 2313.61 1110.47 2257.34 1186.56 2299.62 1128.14 2355.89 1052.05 2313.61"/><polygon class="cls-22" points="977.15 2271.99 1035.58 2215.72 1111.66 2258 1053.24 2314.27 977.15 2271.99"/><polygon class="cls-22" points="902.25 2230.37 960.68 2174.1 1036.76 2216.38 978.34 2272.65 902.25 2230.37"/><polygon class="cls-9" points="827.35 2188.75 885.77 2132.48 961.86 2174.76 903.44 2231.03 827.35 2188.75"/><polygon class="cls-8" points="1159.03 2210.57 1217.46 2154.3 1293.55 2196.58 1235.12 2252.85 1159.03 2210.57"/><polygon class="cls-22" points="1084.13 2168.95 1142.56 2112.68 1218.65 2154.96 1160.22 2211.23 1084.13 2168.95"/><polygon class="cls-22" points="1009.24 2127.33 1067.66 2071.07 1143.75 2113.34 1085.32 2169.61 1009.24 2127.33"/><polygon class="cls-9" points="934.33 2085.72 992.76 2029.45 1068.85 2071.72 1010.42 2127.99 934.33 2085.72"/><polygon class="cls-10" points="859.43 2044.1 917.86 1987.83 993.95 2030.11 935.52 2086.38 859.43 2044.1"/><polygon class="cls-8" points="1266.02 2107.53 1324.44 2051.27 1400.53 2093.55 1342.11 2149.81 1266.02 2107.53"/><polygon class="cls-22" points="1191.12 2065.92 1249.54 2009.65 1325.63 2051.93 1267.2 2108.2 1191.12 2065.92"/><polygon class="cls-8" points="1373 2004.5 1431.42 1948.23 1507.51 1990.51 1449.09 2046.78 1373 2004.5"/><polygon class="cls-22" points="1298.1 1962.88 1356.53 1906.61 1432.61 1948.89 1374.19 2005.16 1298.1 1962.88"/><polygon class="cls-22" points="1223.2 1921.26 1281.63 1864.99 1357.71 1907.27 1299.29 1963.54 1223.2 1921.26"/><polygon class="cls-9" points="1148.3 1879.64 1206.72 1823.38 1282.81 1865.65 1224.39 1921.92 1148.3 1879.64"/><polygon class="cls-8" points="1479.98 1901.46 1538.41 1845.19 1614.5 1887.47 1556.07 1943.74 1479.98 1901.46"/><polygon class="cls-22" points="1405.09 1859.85 1463.51 1803.58 1539.6 1845.85 1481.17 1902.12 1405.09 1859.85"/><polygon class="cls-22" points="1330.18 1818.23 1388.61 1761.96 1464.7 1804.24 1406.27 1860.51 1330.18 1818.23"/><polygon class="cls-9" points="1255.28 1776.61 1313.71 1720.34 1389.8 1762.62 1331.37 1818.89 1255.28 1776.61"/><polygon class="cls-9" points="1180.38 1734.99 1238.81 1678.72 1314.9 1721 1256.47 1777.27 1180.38 1734.99"/><polygon class="cls-10" points="1105.48 1693.37 1163.91 1637.1 1240 1679.38 1181.57 1735.65 1105.48 1693.37"/><polygon class="cls-8" points="1586.97 1798.43 1645.39 1742.16 1721.48 1784.44 1663.06 1840.71 1586.97 1798.43"/><polygon class="cls-22" points="1512.07 1756.81 1570.49 1700.54 1646.58 1742.82 1588.15 1799.09 1512.07 1756.81"/><polygon class="cls-22" points="1437.17 1715.19 1495.59 1658.92 1571.68 1701.2 1513.26 1757.47 1437.17 1715.19"/><polygon class="cls-9" points="1362.27 1673.57 1420.69 1617.3 1496.78 1659.58 1438.36 1715.85 1362.27 1673.57"/><polygon class="cls-9" points="1287.37 1631.95 1345.79 1575.69 1421.88 1617.96 1363.46 1674.23 1287.37 1631.95"/><polygon class="cls-10" points="1212.47 1590.34 1270.89 1534.07 1346.98 1576.35 1288.56 1632.62 1212.47 1590.34"/><polygon class="cls-10" points="1137.57 1548.72 1195.99 1492.45 1272.08 1534.73 1213.66 1591 1137.57 1548.72"/><path class="cls-11" d="M384.1,2096.29c-11.67-6.48-28.45-4.75-37.41,3.89l-90.64,87.29c-9,8.64-6.75,20.92,4.92,27.41s28.43,4.74,37.4-3.89l90.63-87.3C398,2115.06,395.78,2102.78,384.1,2096.29Z"/><polygon class="cls-23" points="1709.51 496.14 3169.42 1138.68 1367.7 2635.31 -92.21 1992.78 1709.51 496.14"/><polygon class="cls-6" points="1700.6 477.31 3160.51 1119.85 1358.79 2616.48 -101.12 1973.95 1700.6 477.31"/><polygon class="cls-29" points="1917.48 771.75 1934.96 779.23 1860.66 827.58 1843.18 820.1 1917.48 771.75"/><path class="cls-29" d="M1951.08,786.12,1969.5,794l-18.34,48.09L2003,808.35l16.41,7-74.3,48.35-17.58-7.52,18.37-49.06-52.78,34.34-16.38-7Z"/><path class="cls-29" d="M2097,848.55l-13.16,8.56-25.19-10.77-61.14,39.79-17.73-7.59,61.14-39.79-25.3-10.82,13.16-8.56Z"/><path class="cls-29" d="M2156.4,888.14l-44.57-19.06-15.78,10.26,40.91,17.5-12.9,8.4-40.91-17.5L2064,900.17l46.62,19.94-13.36,8.69-63.8-27.28,74.3-48.36,61.75,26.42Z"/><path class="cls-29" d="M2190,902.25l-20,13,19.92,8.52a37.83,37.83,0,0,0,10.13,3,20,20,0,0,0,13.59-3.21q6.76-4.4,4-8.08-1.55-2.07-7.25-4.51Zm51.6,15.82a11.59,11.59,0,0,1-1.93,5.92,19.73,19.73,0,0,1-6.21,5.77,43.83,43.83,0,0,1-13.44,5.47,40.88,40.88,0,0,1-17.22.44c2.5,2.56,3.28,5,2.39,7.36s-4,5.2-9.2,8.59l-5,3.25a43.78,43.78,0,0,0-6.42,4.7c-1.48,1.43-1.84,2.8-1.06,4.11l-1.86,1.22-19.38-8.29c1.13-1.29,2.06-2.33,2.85-3.08a44.13,44.13,0,0,1,5.67-4.48l6.79-4.54q7-4.66,6.52-7.43T2175.9,931l-18.14-7.75-29.13,19-17.22-7.37,74.3-48.35L2227,904.16c5.79,2.58,9.72,5,11.72,7.08A9.42,9.42,0,0,1,2241.63,918.07Z"/><path class="cls-29" d="M2318.9,957.65l-44.53-19-15.78,10.27,40.87,17.48-12.9,8.4-40.87-17.48-19.1,12.43,46.61,19.94-13.36,8.69L2196,971l74.3-48.36,61.75,26.42Z"/><path class="cls-29" d="M2309.2,994.71c-2.84,2.45-4.35,4.53-4.46,6.3q-.31,4.82,10.11,9.27a51.36,51.36,0,0,0,11.3,3.53c6.48,1.11,11.8.28,16-2.45,2.45-1.6,3.11-3.36,2-5.27s-3.82-4.3-8-7.18l-7.15-5c-7-4.89-11.16-8.71-12.48-11.48q-3.36-7,7.57-14.11,10-6.5,24.8-7.27c9.89-.52,20.17,1.5,30.77,6q13.34,5.7,16.48,13.76c2.14,5.39-.63,10.7-8.2,16l-16.93-7.24q6.27-4.54,2.91-9c-1.5-2-4.27-3.84-8.37-5.59a36,36,0,0,0-13.28-3.07,18.42,18.42,0,0,0-10.77,2.68c-2.66,1.73-3.32,3.58-2,5.57q1.26,2,7.89,6.7l11.44,8.2c5,3.6,8,6.82,9,9.68q2.26,6.62-7.65,13.09-10.17,6.63-25.75,7.22a72.89,72.89,0,0,1-31.67-6.28q-16.44-7-19.21-15.37t8.78-15.9Z"/><path class="cls-29" d="M2487,1015.38l-13.16,8.56-25.19-10.78L2387.54,1053l-17.7-7.56,61.15-39.8-25.3-10.82,13.16-8.56Z"/><path class="cls-29" d="M2534.52,1049.61l-20,13,19.92,8.52a37.93,37.93,0,0,0,10.13,3,20,20,0,0,0,13.63-3.19c4.51-2.93,5.81-5.64,4-8.08-1-1.38-3.48-2.9-7.28-4.53Zm51.61,15.82a11.68,11.68,0,0,1-1.9,5.93,20.3,20.3,0,0,1-6.21,5.77,44.4,44.4,0,0,1-13.44,5.48,41,41,0,0,1-17.25.42c2.53,2.57,3.31,5,2.39,7.35s-4,5.22-9.17,8.61l-5,3.25a50,50,0,0,0-6.46,4.68c-1.44,1.45-1.8,2.83-1,4.14l-1.86,1.21-19.38-8.29a37.59,37.59,0,0,1,2.85-3.07,40.81,40.81,0,0,1,5.63-4.5l6.8-4.54q7-4.68,6.55-7.42c-.32-1.84-3.08-3.87-8.23-6.08l-18.17-7.77-29.14,19-17.18-7.35,74.3-48.35,41.28,17.66c5.82,2.59,9.71,5,11.72,7.08A9.34,9.34,0,0,1,2586.13,1065.43Z"/><path class="cls-29" d="M2591.1,1109.74l21.38,9.15,18.71-23.53Zm47.32-29.61,19.89,8.51-44.51,61.1-19.05-8.15,9.83-12.27-31-13.26-21.12,7.44-18.39-7.87Z"/><path class="cls-29" d="M2760,1132.13l-13.16,8.56-25.19-10.77-61.14,39.79-17.7-7.57,61.15-39.79-25.34-10.84,13.16-8.56Z"/><path class="cls-29" d="M2819.35,1171.72l-44.52-19-15.78,10.27,40.87,17.48-12.91,8.4-40.87-17.48-19.1,12.43,46.61,19.94-13.36,8.69-63.83-27.31,74.3-48.35,61.75,26.42Z"/><path class="cls-24" d="M1432.19,2433c19.42-16.14,18.44-36.61-2.2-45.7L737.75,2082.63c-20.64-9.08-53.16-3.35-72.59,12.78l-22,18.26c-19.42,16.14-18.44,36.61,2.2,45.69L1337.62,2464c20.64,9.09,53.16,3.36,72.59-12.78Z"/><path class="cls-25" d="M2026.57,1965.36c32.36-26.89,30.72-61-3.66-76.13L869.7,1381.68c-34.38-15.13-88.56-5.58-120.93,21.3L308.16,1769c-32.36,26.88-30.73,61,3.65,76.12L1465,2352.65c34.38,15.13,88.56,5.59,120.92-21.29Z"/><polygon class="cls-26" points="575.59 1684.68 1640.27 2153.26 1632.43 2159.77 567.76 1691.19 575.59 1684.68"/><path class="cls-27" d="M613.29,1668.45,1664.16,2131l211.1-175.36c-7.11-7.62-17.91-13.07-34.24-12.45-46.18,1.77-102.91,17.2-147.24,33-68.58,24.4-138.74,56-191.2,18.76-56.51-40.11-1.46-139.34-82.22-160.85-86.8-23.12-214.76,50.25-279.64-7.66-45.08-40.23-35.16-98.44-37-151.1-1.2-35.44,2.19-70.28-46.37-87.07-85.18-29.46-228.64,15.55-324.69,41.43C706.23,1636.75,647.83,1652.65,613.29,1668.45Z"/><ellipse class="cls-28" cx="1870.27" cy="1960.04" rx="23.03" ry="14.04" transform="translate(-427.54 524.86) rotate(-14.35)"/><path class="cls-29" d="M1752.66,1976.09l4.3-3.57a38.06,38.06,0,0,0,4.85,1.62,12.27,12.27,0,0,0,5,.06,13.24,13.24,0,0,0,3.63-1.34,10.27,10.27,0,0,0,1.54-.95l5.58,2.45-32.14,26.7-6.87-3,22.16-18.41Z"/><path class="cls-29" d="M1771.6,2007.07c2,.87,4.28.64,6.85-.72a56.87,56.87,0,0,0,9.41-6.63q5.81-4.83,7.67-7.55t-1.12-4.05c-2-.88-4.25-.68-6.75.58a54.44,54.44,0,0,0-9.57,6.72,42.49,42.49,0,0,0-7.51,7.47Q1768.6,2005.76,1771.6,2007.07Zm23.18-4.3q-8,6.6-14.88,9a17.75,17.75,0,0,1-13.44-.45q-6.53-2.88-4.85-7.6t9.63-11.34q8-6.6,14.9-9a17.77,17.77,0,0,1,13.47.43q6.53,2.88,4.83,7.62T1794.78,2002.77Z"/><path class="cls-29" d="M1798.42,2018.87q3,1.32,6.85-.71a57.65,57.65,0,0,0,9.41-6.64q5.8-4.82,7.67-7.55c1.24-1.82.87-3.17-1.13-4s-4.24-.68-6.75.58a55.93,55.93,0,0,0-9.56,6.72,42.49,42.49,0,0,0-7.51,7.47Q1795.42,2017.55,1798.42,2018.87Zm23.18-4.3q-7.95,6.62-14.88,9a17.78,17.78,0,0,1-13.45-.46q-6.52-2.87-4.85-7.6t9.64-11.33q7.95-6.62,14.9-9a17.73,17.73,0,0,1,13.47.44q6.52,2.87,4.83,7.61T1821.6,2014.57Z"/><path class="cls-29" d="M1856.63,2008.63l6.59,2.9-17.6,14.62,17.45-3.87,8.31,3.66-18.22,3.73-5.48,16.4-8.1-3.56,4.19-11.29-5.51,1-7.6,6.31-6.59-2.9Z"/><path class="cls-29" d="M1907.87,2044.73a6.25,6.25,0,0,1-1.65,3.22,30.29,30.29,0,0,1-3.33,3.07l-15.28,12.63-6.87-3,15.38-12.77a6.34,6.34,0,0,0,1.79-2.09c.53-1.2,0-2.14-1.61-2.85a7.42,7.42,0,0,0-6,.11,13.33,13.33,0,0,0-3.31,2.07l-14.39,12-6.75-3,14.38-12a10.61,10.61,0,0,0,2.65-2.8q.92-1.83-1.56-2.92a7.24,7.24,0,0,0-5.62-.24,13.32,13.32,0,0,0-3.51,2.23l-14.54,12.08-6.8-3,24.11-20,6.52,2.87-3.52,2.93a24,24,0,0,1,5-1.19,12.77,12.77,0,0,1,6.48,1c2,.86,3.14,1.9,3.53,3.1a4.82,4.82,0,0,1-.69,3.39,19.23,19.23,0,0,1,6.4-1.16,15,15,0,0,1,5.62,1.2,7.29,7.29,0,0,1,2.72,2A4.06,4.06,0,0,1,1907.87,2044.73Z"/><polygon class="cls-26" points="1219.01 2066.25 1278.74 2092.54 1266.47 2102.73 1206.75 2076.44 1219.01 2066.25"/><polygon class="cls-26" points="1192.81 2088.02 1252.54 2114.3 1240.27 2124.49 1180.55 2098.21 1192.81 2088.02"/><path class="cls-29" d="M1318.77,2172.9a26.14,26.14,0,0,0,9.15,1.39c4.32-.35,8.68-2.33,13-5.94,3.32-2.75,4.72-5.46,4.25-8.12-.3-1.55-1.62-3.59-3.84-6.09Zm54.55-52.7a18.28,18.28,0,0,0-10.62-1.26,21.23,21.23,0,0,0-9.61,4.69q-4.85,4-3.79,8.09c.37,1.49,1.65,3.27,3.75,5.32Zm-78.92,73.1-5.93-2.61,11.49-9.55c-7.24-4.26-11.59-8.28-13.1-12.08q-3.84-10.12,12.36-23.34l16.57,7.3q-6.45,6.41-7.41,9.14-1.45,4.29,4.41,8.33l24.66-20.49-3.6-3.35c-5.66-5.23-8.15-10.15-7.52-14.76s3.66-9.18,9.09-13.69a50.32,50.32,0,0,1,11.65-7.28,54.49,54.49,0,0,1,12.78-4,48,48,0,0,1,15.37-.43,61.63,61.63,0,0,1,11,3l7.68-6.38,5.82,2.56-7.8,6.47c6.18,3.36,9.86,6.94,11.09,10.76q4.18,9.69-9.29,21.38l-16.18-7.12c3.12-3,5-5.32,5.7-7q1.76-4.44-4-7.48l-22,18.28c6.58,6.91,10.35,12.12,11.26,15.6,1.5,5.8-1.46,11.74-8.81,17.85q-14.57,12.11-32.49,12.57a58,58,0,0,1-21.19-3.31Z"/><path class="cls-29" d="M1401.61,2209.36a25.87,25.87,0,0,0,9.15,1.38c4.32-.34,8.68-2.32,13-5.93,3.32-2.75,4.72-5.46,4.25-8.12-.3-1.55-1.62-3.6-3.84-6.09Zm54.55-52.7a18.28,18.28,0,0,0-10.62-1.26,21.23,21.23,0,0,0-9.61,4.69q-4.85,4-3.79,8.09c.37,1.49,1.65,3.27,3.75,5.32Zm-78.92,73.1-5.93-2.61,11.49-9.55c-7.24-4.27-11.59-8.29-13.1-12.08q-3.84-10.12,12.36-23.34l16.57,7.3q-6.45,6.41-7.41,9.14-1.46,4.29,4.41,8.33l24.66-20.49-3.6-3.35c-5.66-5.23-8.15-10.15-7.52-14.76s3.66-9.18,9.09-13.69a50.32,50.32,0,0,1,11.65-7.28,54.49,54.49,0,0,1,12.78-4,48,48,0,0,1,15.37-.43,61.63,61.63,0,0,1,11,3l7.68-6.38,5.82,2.56-7.8,6.47c6.18,3.36,9.86,6.94,11.09,10.76q4.18,9.69-9.29,21.38l-16.18-7.12c3.12-3,5-5.32,5.7-7q1.76-4.44-4-7.48l-22,18.28c6.58,6.91,10.35,12.12,11.26,15.6,1.5,5.8-1.46,11.74-8.81,17.85Q1428,2223,1410,2223.42a58,58,0,0,1-21.19-3.31Z"/><path class="cls-29" d="M1484.45,2245.82a25.82,25.82,0,0,0,9.14,1.38c4.33-.34,8.69-2.32,13-5.93,3.31-2.76,4.71-5.47,4.24-8.12-.29-1.55-1.61-3.6-3.84-6.09Zm54.55-52.7a18.2,18.2,0,0,0-10.62-1.26,21.13,21.13,0,0,0-9.61,4.69q-4.85,4-3.79,8.09c.37,1.48,1.64,3.27,3.75,5.32Zm-78.93,73.09-5.93-2.61,11.5-9.54c-7.25-4.27-11.6-8.29-13.1-12.08q-3.84-10.14,12.36-23.34l16.57,7.29c-4.31,4.28-6.77,7.33-7.41,9.15q-1.45,4.27,4.4,8.32l24.67-20.49-3.6-3.34c-5.66-5.23-8.15-10.15-7.53-14.76s3.66-9.18,9.1-13.69a50.47,50.47,0,0,1,11.64-7.28,54.1,54.1,0,0,1,12.79-4,47.89,47.89,0,0,1,15.36-.43,60.63,60.63,0,0,1,11,3l7.68-6.38,5.81,2.56-7.79,6.47q9.26,5,11.08,10.75,4.18,9.7-9.28,21.39l-16.18-7.12c3.11-3,5-5.32,5.7-7q1.75-4.45-4-7.48l-22,18.28c6.58,6.91,10.35,12.12,11.26,15.6q2.23,8.7-8.82,17.85-14.55,12.09-32.48,12.57a58.07,58.07,0,0,1-21.2-3.31Z"/><path class="cls-30" d="M741.65,1546.87c21.29,3.89,27.77,23.25,30.14,36.8,6.41,36.67-7.58,91.55,51.24,105.81,43,10.43,107.39.16,155.81-3,123.19-8.08,281.33-26.88,369,24.18,60.08,35,60.5,129.53,74.45,183.94,6.09,23.8,7.07,48.59,31.65,65.7,31.52,22,92.81,5,127.82,24.07,35.36,19.28,13.91,67.72,58.8,79.32,21.05,5.44,67.06-.53,104.62-.06L1664.16,2131,601.52,1663.27Z"/><polygon class="cls-11" points="899.57 1271.32 2179.61 1834.69 2148.28 1860.71 868.25 1297.35 899.57 1271.32"/><polygon class="cls-12" points="1542.45 737.31 2822.48 1300.68 2166.8 1845.33 886.77 1281.96 1542.45 737.31"/><polygon class="cls-13" points="1542.44 737.31 2822.48 1300.68 2782.28 1334.07 1502.24 770.71 1542.44 737.31"/><polygon class="cls-14" points="1017.36 1258.47 2104.23 1736.82 2098.02 1741.98 1011.15 1263.63 1017.36 1258.47"/><ellipse class="cls-16" cx="2097.81" cy="1739.3" rx="19.37" ry="11.81" transform="translate(-365.71 574.38) rotate(-14.35)"/><ellipse class="cls-16" cx="1522.09" cy="844.29" rx="19.37" ry="11.81" transform="translate(-161.8 403.71) rotate(-14.35)"/><polygon class="cls-14" points="1518.87 850.27 1018.57 1265.86 1011.97 1262.95 1512.27 847.37 1518.87 850.27"/><polygon class="cls-8" points="1201.73 1217.91 1277.83 1251.4 1206.19 1310.91 1130.1 1277.41 1201.73 1217.91"/><polygon class="cls-22" points="1272.25 1159.34 1348.34 1192.83 1276.71 1252.33 1200.62 1218.84 1272.25 1159.34"/><polygon class="cls-22" points="1342.77 1100.76 1418.86 1134.25 1347.22 1193.76 1271.13 1160.27 1342.77 1100.76"/><polygon class="cls-9" points="1413.28 1042.19 1489.38 1075.68 1417.74 1135.18 1341.65 1101.69 1413.28 1042.19"/><polygon class="cls-9" points="1483.8 983.61 1559.89 1017.1 1488.26 1076.61 1412.16 1043.12 1483.8 983.61"/><polygon class="cls-10" points="1554.31 925.04 1630.41 958.53 1558.77 1018.03 1482.68 984.54 1554.31 925.04"/><polygon class="cls-8" points="1341.07 1279.24 1417.17 1312.73 1345.53 1372.23 1269.44 1338.74 1341.07 1279.24"/><polygon class="cls-22" points="1411.59 1220.66 1487.68 1254.15 1416.05 1313.66 1339.95 1280.17 1411.59 1220.66"/><polygon class="cls-22" points="1482.1 1162.09 1558.2 1195.58 1486.56 1255.08 1410.47 1221.59 1482.1 1162.09"/><polygon class="cls-9" points="1552.62 1103.51 1628.71 1137 1557.08 1196.51 1480.98 1163.02 1552.62 1103.51"/><polygon class="cls-8" points="1480.41 1340.56 1556.51 1374.05 1484.87 1433.56 1408.78 1400.07 1480.41 1340.56"/><polygon class="cls-22" points="1550.93 1281.99 1627.02 1315.48 1555.39 1374.98 1479.29 1341.49 1550.93 1281.99"/><polygon class="cls-22" points="1621.44 1223.41 1697.54 1256.9 1625.9 1316.41 1549.81 1282.92 1621.44 1223.41"/><polygon class="cls-9" points="1691.96 1164.84 1768.05 1198.33 1696.42 1257.83 1620.33 1224.34 1691.96 1164.84"/><polygon class="cls-10" points="1762.47 1106.26 1838.57 1139.75 1766.93 1199.26 1690.84 1165.77 1762.47 1106.26"/><polygon class="cls-8" points="1619.75 1401.89 1695.85 1435.38 1624.21 1494.88 1548.12 1461.39 1619.75 1401.89"/><polygon class="cls-22" points="1690.27 1343.31 1766.36 1376.8 1694.73 1436.31 1618.63 1402.82 1690.27 1343.31"/><polygon class="cls-8" points="1759.09 1463.21 1835.19 1496.7 1763.55 1556.21 1687.46 1522.72 1759.09 1463.21"/><polygon class="cls-22" points="1829.61 1404.64 1905.7 1438.13 1834.07 1497.63 1757.97 1464.14 1829.61 1404.64"/><polygon class="cls-22" points="1900.12 1346.06 1976.22 1379.56 1904.58 1439.06 1828.49 1405.57 1900.12 1346.06"/><polygon class="cls-9" points="1970.64 1287.49 2046.73 1320.98 1975.1 1380.48 1899 1346.99 1970.64 1287.49"/><polygon class="cls-8" points="1898.43 1524.54 1974.53 1558.03 1902.89 1617.54 1826.8 1584.05 1898.43 1524.54"/><polygon class="cls-22" points="1968.95 1465.96 2045.04 1499.46 1973.41 1558.96 1897.31 1525.47 1968.95 1465.96"/><polygon class="cls-22" points="2039.46 1407.39 2115.56 1440.88 2043.92 1500.39 1967.83 1466.89 2039.46 1407.39"/><polygon class="cls-9" points="2109.98 1348.82 2186.07 1382.31 2114.44 1441.81 2038.35 1408.32 2109.98 1348.82"/><polygon class="cls-9" points="2180.49 1290.24 2256.59 1323.73 2184.95 1383.24 2108.86 1349.74 2180.49 1290.24"/><polygon class="cls-10" points="2251.01 1231.66 2327.1 1265.16 2255.47 1324.66 2179.38 1291.17 2251.01 1231.66"/><polygon class="cls-8" points="2037.77 1585.87 2113.87 1619.36 2042.23 1678.86 1966.14 1645.37 2037.77 1585.87"/><polygon class="cls-22" points="2108.29 1527.29 2184.38 1560.78 2112.75 1620.29 2036.65 1586.8 2108.29 1527.29"/><polygon class="cls-22" points="2178.8 1468.72 2254.9 1502.21 2183.26 1561.71 2107.17 1528.22 2178.8 1468.72"/><polygon class="cls-9" points="2249.32 1410.14 2325.41 1443.63 2253.78 1503.14 2177.68 1469.64 2249.32 1410.14"/><polygon class="cls-9" points="2319.83 1351.57 2395.93 1385.06 2324.29 1444.56 2248.2 1411.07 2319.83 1351.57"/><polygon class="cls-10" points="2390.35 1292.99 2466.44 1326.48 2394.81 1385.99 2318.71 1352.49 2390.35 1292.99"/><polygon class="cls-10" points="2460.86 1234.42 2536.96 1267.91 2465.32 1327.41 2389.23 1293.92 2460.86 1234.42"/><path class="cls-11" d="M1742.64,778c11-9.13,10.44-20.72-1.24-25.86l-118.05-52c-11.68-5.14-30.09-1.89-41.09,7.24s-10.43,20.71,1.25,25.85l118,52C1713.24,790.39,1731.64,787.15,1742.64,778Z"/><ellipse class="cls-1" cx="2244.23" cy="1141.72" rx="804.96" ry="807.54"/><g class="cls-31"><polygon class="cls-23" points="1564.11 194.3 3550.68 1068.62 1098.99 3105.14 -887.57 2230.82 1564.11 194.3"/><polygon class="cls-6" points="1551.99 168.67 3538.56 1042.99 1086.87 3079.52 -899.69 2205.2 1551.99 168.67"/><polygon class="cls-29" points="1847.11 569.33 1870.89 579.5 1769.79 645.3 1746.01 635.12 1847.11 569.33"/><path class="cls-29" d="M1892.83,588.88l25.07,10.73-25,65.44,70.58-45.93,22.34,9.56-101.11,65.79-23.93-10.24,25-66.75L1814,664.21l-22.29-9.53Z"/><path class="cls-29" d="M2091.42,673.83l-17.9,11.65-34.28-14.66L1956,725l-24.13-10.32,83.2-54.14-34.42-14.73,17.9-11.65Z"/><path class="cls-29" d="M2172.22,727.7l-60.65-25.94-21.47,14,55.67,23.81L2128.21,751l-55.67-23.81-26,16.91L2110,771.2,2091.8,783,2005,745.9l101.11-65.79,84,35.94Z"/><path class="cls-29" d="M2218,746.9l-27.16,17.68,27.11,11.6a52.23,52.23,0,0,0,13.78,4.12,27.24,27.24,0,0,0,18.5-4.37c6.13-4,8-7.64,5.43-11q-2.08-2.82-9.85-6.14Zm70.22,21.53a15.8,15.8,0,0,1-2.63,8.05c-1.62,2.66-4.47,5.27-8.45,7.85a59.4,59.4,0,0,1-18.29,7.46,55.57,55.57,0,0,1-23.43.59c3.4,3.48,4.47,6.81,3.26,10s-5.44,7.08-12.53,11.69l-6.79,4.42c-4.62,3-7.55,5.13-8.75,6.39-2,2-2.49,3.82-1.44,5.61l-2.53,1.65-26.37-11.28c1.54-1.76,2.8-3.17,3.87-4.19a59.84,59.84,0,0,1,7.72-6.09l9.25-6.18q9.52-6.36,8.87-10.12c-.39-2.48-4.14-5.24-11.21-8.26l-24.67-10.56-39.65,25.8-23.43-10,101.11-65.8,56.21,24c7.87,3.51,13.22,6.74,15.95,9.63A12.87,12.87,0,0,1,2288.2,768.43Z"/><path class="cls-29" d="M2393.34,822.29l-60.59-25.92-21.47,14,55.62,23.79-17.56,11.43-55.62-23.79-26,16.91,63.42,27.13L2313,877.64l-86.85-37.15,101.1-65.8,84,35.95Z"/><path class="cls-29" d="M2380.15,872.72c-3.87,3.32-5.93,6.16-6.08,8.57q-.42,6.56,13.76,12.61a69.51,69.51,0,0,0,15.38,4.81q13.22,2.25,21.77-3.34c3.34-2.17,4.23-4.58,2.78-7.17s-5.2-5.85-10.89-9.76l-9.73-6.76c-9.57-6.65-15.19-11.84-17-15.62q-4.56-9.49,10.29-19.19Q2414,828,2434.21,827t41.87,8.22q18.14,7.75,22.42,18.73c2.91,7.33-.86,14.56-11.16,21.74l-23-9.85c5.68-4.13,7-8.22,4-12.29-2-2.69-5.82-5.22-11.39-7.61a49,49,0,0,0-18.07-4.18c-5.87-.14-10.73,1.09-14.66,3.65-3.62,2.35-4.52,4.87-2.67,7.58q1.72,2.65,10.73,9.11l15.57,11.17c6.83,4.89,10.9,9.27,12.26,13.16q3.09,9-10.4,17.82-13.84,9-35,9.83t-43.08-8.56q-22.4-9.57-26.15-20.91t12-21.63Z"/><path class="cls-29" d="M2622.12,900.84l-17.9,11.65-34.28-14.66L2486.74,952l-24.08-10.3,83.21-54.14-34.43-14.73,17.9-11.65Z"/><path class="cls-29" d="M2686.75,947.42l-27.16,17.67,27.11,11.6a51.05,51.05,0,0,0,13.78,4.12,27.13,27.13,0,0,0,18.55-4.34c6.13-4,7.91-7.67,5.43-11-1.39-1.88-4.73-3.94-9.91-6.16ZM2757,969a15.68,15.68,0,0,1-2.59,8.06c-1.67,2.65-4.46,5.27-8.44,7.86a60.64,60.64,0,0,1-18.3,7.45,55.92,55.92,0,0,1-23.47.58c3.45,3.49,4.52,6.82,3.25,10S2702,1010,2695,1014.62l-6.8,4.42a67.39,67.39,0,0,0-8.79,6.37c-2,2-2.45,3.84-1.39,5.62l-2.54,1.65-26.36-11.27a51.75,51.75,0,0,1,3.87-4.19,55.34,55.34,0,0,1,7.67-6.12l9.25-6.17c6.35-4.24,9.3-7.61,8.91-10.1s-4.19-5.27-11.2-8.27L2642.85,976l-39.65,25.8-23.38-10L2680.92,926l56.17,24c7.92,3.54,13.22,6.75,15.95,9.64S2757.09,965.65,2757,969Z"/><path class="cls-29" d="M2763.73,1029.25l29.11,12.45,25.46-32Zm64.4-40.29,27.06,11.57-60.56,83.14-25.92-11.09,13.37-16.69-42.19-18.05L2711.15,1048l-25-10.7Z"/><path class="cls-29" d="M2993.54,1059.71l-17.91,11.65-34.27-14.66-83.2,54.14-24.08-10.3,83.2-54.14-34.47-14.75,17.9-11.65Z"/><path class="cls-29" d="M3074.33,1113.58l-60.59-25.92-21.47,14,55.62,23.79-17.56,11.43-55.62-23.79-26,16.91,63.42,27.14L2994,1168.94l-86.86-37.16,101.1-65.79,84,35.94Z"/><path class="cls-24" d="M1186.75,2829.85c26.43-22,25.09-49.82-3-62.18l-942-414.58c-28.08-12.35-72.34-4.56-98.77,17.4l-29.91,24.84c-26.43,22-25.09,49.82,3,62.17l942,414.58c28.09,12.36,72.35,4.57,98.78-17.39Z"/><path class="cls-25" d="M1995.55,2193.51c44-36.58,41.81-83-5-103.58L421.34,1399.29c-46.78-20.59-120.51-7.61-164.54,29l-599.57,498c-44,36.57-41.81,83,5,103.58l1569.23,690.64c46.79,20.59,120.52,7.61,164.55-29Z"/><polygon class="cls-26" points="21.14 1811.58 1469.9 2449.2 1459.23 2458.06 10.48 1820.44 21.14 1811.58"/><path class="cls-27" d="M72.44,1789.49l1430,629.35,287.26-238.61c-9.68-10.38-24.37-17.8-46.59-16.95-62.84,2.41-140,23.41-200.36,44.87-93.32,33.2-188.79,76.2-260.18,25.52-76.89-54.58-2-189.61-111.87-218.87-118.11-31.46-292.24,68.37-380.52-10.43-61.34-54.74-47.85-133.94-50.28-205.6-1.64-48.23,3-95.63-63.11-118.48-115.9-40.09-311.11,21.16-441.81,56.37C198.9,1746.37,119.44,1768,72.44,1789.49Z"/><ellipse class="cls-28" cx="1782.87" cy="2186.28" rx="31.34" ry="19.11" transform="translate(-486.35 510.25) rotate(-14.35)"/><path class="cls-29" d="M1622.84,2208.12l5.85-4.87a51.08,51.08,0,0,0,6.6,2.22,16.59,16.59,0,0,0,6.77.07,17.84,17.84,0,0,0,4.93-1.82,14.07,14.07,0,0,0,2.11-1.3l7.59,3.35L1613,2242.1l-9.36-4.12,30.16-25.06Z"/><path class="cls-29" d="M1648.6,2250.27q4.07,1.79,9.33-1a77.53,77.53,0,0,0,12.8-9q7.9-6.55,10.44-10.28t-1.53-5.5q-4.08-1.78-9.19.79a74.36,74.36,0,0,0-13,9.14q-7.55,6.26-10.23,10.16T1648.6,2250.27Zm31.55-5.85q-10.83,9-20.25,12.28a24.14,24.14,0,0,1-18.3-.62q-8.86-3.9-6.59-10.34t13.1-15.42q10.83-9,20.28-12.31a24.16,24.16,0,0,1,18.33.59q8.88,3.92,6.57,10.37T1680.15,2244.42Z"/><path class="cls-29" d="M1685.09,2266.33c2.71,1.19,5.83.87,9.33-1a77.53,77.53,0,0,0,12.8-9q7.9-6.55,10.44-10.27t-1.53-5.51q-4.07-1.78-9.19.79a74.74,74.74,0,0,0-13,9.14q-7.54,6.27-10.22,10.16T1685.09,2266.33Zm31.55-5.85q-10.82,9-20.25,12.28a24.11,24.11,0,0,1-18.29-.62q-8.88-3.9-6.6-10.34t13.11-15.42q10.82-9,20.28-12.31a24.16,24.16,0,0,1,18.33.59q8.87,3.91,6.56,10.37T1716.64,2260.48Z"/><path class="cls-29" d="M1764.31,2252.4l9,3.95-24,19.89,23.74-5.26,11.31,5-24.79,5.08-7.46,22.32-11-4.85,5.7-15.36-7.5,1.42-10.34,8.59-9-3.94Z"/><path class="cls-29" d="M1834,2301.52a8.49,8.49,0,0,1-2.24,4.39,43.72,43.72,0,0,1-4.53,4.17l-20.79,17.18-9.36-4.11,20.94-17.39a8.62,8.62,0,0,0,2.43-2.84q1.08-2.45-2.19-3.88a10.07,10.07,0,0,0-8.18.16,18.33,18.33,0,0,0-4.51,2.81L1786,2318.27l-9.2-4.05,19.58-16.26a14.69,14.69,0,0,0,3.61-3.81c.82-1.66.11-3-2.13-4a9.84,9.84,0,0,0-7.64-.34,18,18,0,0,0-4.78,3l-19.79,16.43-9.26-4.07,32.82-27.26,8.88,3.91-4.8,4a33.75,33.75,0,0,1,6.85-1.62,17.47,17.47,0,0,1,8.82,1.42c2.67,1.18,4.28,2.59,4.81,4.23a6.52,6.52,0,0,1-.94,4.61,25.9,25.9,0,0,1,8.71-1.57,20.13,20.13,0,0,1,7.64,1.63,9.81,9.81,0,0,1,3.7,2.71A5.39,5.39,0,0,1,1834,2301.52Z"/><polygon class="cls-26" points="896.67 2330.81 977.94 2366.57 961.25 2380.44 879.99 2344.67 896.67 2330.81"/><polygon class="cls-26" points="861.02 2360.42 942.29 2396.19 925.6 2410.05 844.33 2374.28 861.02 2360.42"/><path class="cls-29" d="M1032.42,2475.92a35.24,35.24,0,0,0,12.44,1.89c5.89-.47,11.82-3.16,17.74-8.08,4.51-3.74,6.41-7.43,5.78-11-.41-2.11-2.21-4.9-5.23-8.29Zm74.23-71.71a24.89,24.89,0,0,0-14.45-1.71,28.88,28.88,0,0,0-13.08,6.38q-6.6,5.49-5.16,11c.51,2,2.24,4.45,5.1,7.24Zm-107.4,99.47-8.07-3.55,15.64-13Q992,2478.43,989,2470.7q-5.22-13.78,16.81-31.76l22.55,9.93q-8.77,8.73-10.08,12.45-2,5.82,6,11.32l33.57-27.88-4.9-4.55q-11.55-10.68-10.24-20.09t12.37-18.63a69.12,69.12,0,0,1,15.85-9.91,74.06,74.06,0,0,1,17.4-5.42,65.11,65.11,0,0,1,20.91-.59,84,84,0,0,1,14.94,4.09l10.46-8.69,7.91,3.48-10.61,8.82c8.4,4.56,13.41,9.43,15.08,14.63q5.7,13.2-12.63,29.1l-22-9.69c4.24-4.06,6.84-7.25,7.76-9.57q2.39-6-5.41-10.17l-29.94,24.87c9,9.4,14.08,16.49,15.32,21.23q3,11.82-12,24.29-19.8,16.45-44.2,17.1a79,79,0,0,1-28.84-4.5Z"/><path class="cls-29" d="M1145.14,2525.54a35.48,35.48,0,0,0,12.45,1.88c5.88-.47,11.82-3.16,17.74-8.08,4.5-3.74,6.41-7.43,5.77-11-.4-2.11-2.2-4.9-5.23-8.29Zm74.23-71.71a24.81,24.81,0,0,0-14.45-1.72,28.8,28.8,0,0,0-13.07,6.38q-6.61,5.49-5.17,11c.51,2,2.25,4.46,5.11,7.24ZM1112,2553.29l-8.07-3.55,15.64-13c-9.86-5.8-15.78-11.27-17.82-16.44q-5.24-13.79,16.81-31.75l22.55,9.92q-8.79,8.73-10.08,12.45-2,5.82,6,11.32l33.56-27.88-4.9-4.55c-7.7-7.12-11.09-13.81-10.24-20.09s5-12.49,12.38-18.63a68.32,68.32,0,0,1,15.85-9.9,72.85,72.85,0,0,1,17.4-5.42,64.78,64.78,0,0,1,20.9-.6,84.27,84.27,0,0,1,15,4.09l10.45-8.69,7.91,3.49-10.61,8.81c8.41,4.56,13.42,9.43,15.09,14.63q5.68,13.2-12.64,29.1l-22-9.69c4.23-4.06,6.84-7.24,7.76-9.57q2.37-6-5.41-10.17l-30,24.87q13.44,14.1,15.32,21.23,3.06,11.82-12,24.29-19.82,16.45-44.21,17.1a79.08,79.08,0,0,1-28.84-4.5Z"/><path class="cls-29" d="M1257.86,2575.15a35.48,35.48,0,0,0,12.45,1.88c5.88-.47,11.82-3.16,17.74-8.08,4.5-3.74,6.41-7.43,5.77-11-.4-2.11-2.2-4.89-5.23-8.29Zm74.23-71.71a24.81,24.81,0,0,0-14.45-1.72,28.8,28.8,0,0,0-13.07,6.38q-6.61,5.49-5.17,11c.51,2,2.25,4.46,5.11,7.24ZM1224.7,2602.9l-8.07-3.55,15.64-13c-9.86-5.8-15.78-11.27-17.82-16.44q-5.23-13.78,16.81-31.75l22.55,9.92q-8.79,8.73-10.08,12.45-2,5.82,6,11.32l33.56-27.88-4.9-4.55c-7.7-7.12-11.09-13.81-10.24-20.09s5-12.49,12.38-18.63a68.32,68.32,0,0,1,15.85-9.9,73,73,0,0,1,17.4-5.42,64.78,64.78,0,0,1,20.9-.6,84.27,84.27,0,0,1,14.95,4.09l10.45-8.69,7.91,3.49-10.61,8.81c8.41,4.56,13.42,9.43,15.09,14.63q5.68,13.2-12.64,29.1l-22-9.69c4.23-4.06,6.84-7.24,7.76-9.57q2.37-6-5.41-10.17l-30,24.87q13.44,14.1,15.32,21.23,3.06,11.84-12,24.29-19.82,16.46-44.21,17.1a79.08,79.08,0,0,1-28.84-4.5Z"/><path class="cls-30" d="M247.1,1624.05c29,5.3,37.8,31.65,41,50.09,8.72,49.89-10.31,124.58,69.72,144,58.53,14.18,146.13.21,212-4.11,167.63-11,382.82-36.59,502.17,32.9,81.76,47.59,82.33,176.25,101.3,250.29,8.3,32.39,9.62,66.12,43.07,89.41,42.9,29.87,126.29,6.77,173.93,32.75,48.11,26.24,18.93,92.15,80,107.93,28.64,7.4,91.25-.72,142.36-.08l-110.31,91.63-1446-636.4Z"/><polygon class="cls-11" points="462 1249.11 2203.8 2015.71 2161.18 2051.12 419.37 1284.52 462 1249.11"/><polygon class="cls-12" points="1336.79 522.46 3078.59 1289.06 2186.38 2030.19 444.57 1263.59 1336.79 522.46"/><polygon class="cls-13" points="1336.78 522.46 3078.58 1289.06 3023.88 1334.5 1282.08 567.9 1336.78 522.46"/><polygon class="cls-14" points="622.28 1231.62 2101.23 1882.53 2092.78 1889.55 613.83 1238.64 622.28 1231.62"/><ellipse class="cls-16" cx="2092.49" cy="1885.91" rx="26.36" ry="16.07" transform="translate(-402.22 577.63) rotate(-14.35)"/><ellipse class="cls-16" cx="1309.08" cy="668.04" rx="26.36" ry="16.07" transform="translate(-124.75 345.39) rotate(-14.35)"/><polygon class="cls-14" points="1304.71 676.17 623.92 1241.68 614.95 1237.72 1295.73 672.22 1304.71 676.17"/><polygon class="cls-8" points="873.16 1176.43 976.71 1222.01 879.23 1302.97 775.69 1257.4 873.16 1176.43"/><polygon class="cls-22" points="969.12 1096.73 1072.66 1142.3 975.19 1223.27 871.64 1177.7 969.12 1096.73"/><polygon class="cls-22" points="1065.07 1017.02 1168.62 1062.6 1071.14 1143.57 967.59 1097.99 1065.07 1017.02"/><polygon class="cls-9" points="1161.02 937.32 1264.57 982.89 1167.09 1063.86 1063.55 1018.29 1161.02 937.32"/><polygon class="cls-9" points="1256.98 857.61 1360.52 903.18 1263.05 984.15 1159.5 938.58 1256.98 857.61"/><polygon class="cls-10" points="1352.93 777.91 1456.48 823.48 1359 904.45 1255.45 858.88 1352.93 777.91"/><polygon class="cls-8" points="1062.77 1259.88 1166.31 1305.45 1068.84 1386.42 965.29 1340.85 1062.77 1259.88"/><polygon class="cls-22" points="1158.72 1180.18 1262.27 1225.75 1164.79 1306.72 1061.24 1261.15 1158.72 1180.18"/><polygon class="cls-22" points="1254.67 1100.47 1358.22 1146.04 1260.74 1227.01 1157.2 1181.44 1254.67 1100.47"/><polygon class="cls-9" points="1350.63 1020.76 1454.17 1066.34 1356.7 1147.31 1253.15 1101.73 1350.63 1020.76"/><polygon class="cls-8" points="1252.37 1343.33 1355.92 1388.9 1258.44 1469.87 1154.9 1424.3 1252.37 1343.33"/><polygon class="cls-22" points="1348.33 1263.63 1451.87 1309.2 1354.4 1390.17 1250.85 1344.6 1348.33 1263.63"/><polygon class="cls-22" points="1444.28 1183.92 1547.83 1229.49 1450.35 1310.46 1346.81 1264.89 1444.28 1183.92"/><polygon class="cls-9" points="1540.23 1104.21 1643.78 1149.79 1546.31 1230.76 1442.76 1185.18 1540.23 1104.21"/><polygon class="cls-10" points="1636.19 1024.51 1739.73 1070.08 1642.26 1151.05 1538.71 1105.48 1636.19 1024.51"/><polygon class="cls-8" points="1441.98 1426.78 1545.52 1472.35 1448.05 1553.32 1344.5 1507.75 1441.98 1426.78"/><polygon class="cls-22" points="1537.93 1347.07 1641.48 1392.64 1544 1473.62 1440.46 1428.04 1537.93 1347.07"/><polygon class="cls-8" points="1631.59 1510.23 1735.13 1555.8 1637.65 1636.77 1534.11 1591.2 1631.59 1510.23"/><polygon class="cls-22" points="1727.54 1430.52 1831.09 1476.1 1733.61 1557.07 1630.06 1511.49 1727.54 1430.52"/><polygon class="cls-22" points="1823.49 1350.82 1927.04 1396.39 1829.56 1477.36 1726.02 1431.79 1823.49 1350.82"/><polygon class="cls-9" points="1919.45 1271.11 2022.99 1316.68 1925.52 1397.65 1821.97 1352.08 1919.45 1271.11"/><polygon class="cls-8" points="1821.19 1593.68 1924.74 1639.25 1827.26 1720.22 1723.72 1674.65 1821.19 1593.68"/><polygon class="cls-22" points="1917.15 1513.97 2020.69 1559.54 1923.21 1640.51 1819.67 1594.94 1917.15 1513.97"/><polygon class="cls-22" points="2013.1 1434.27 2116.64 1479.84 2019.17 1560.81 1915.62 1515.24 2013.1 1434.27"/><polygon class="cls-9" points="2109.05 1354.56 2212.6 1400.13 2115.12 1481.1 2011.58 1435.53 2109.05 1354.56"/><polygon class="cls-9" points="2205.01 1274.86 2308.55 1320.43 2211.08 1401.4 2107.53 1355.83 2205.01 1274.86"/><polygon class="cls-10" points="2300.96 1195.15 2404.51 1240.72 2307.03 1321.69 2203.48 1276.12 2300.96 1195.15"/><polygon class="cls-8" points="2010.8 1677.13 2114.34 1722.7 2016.87 1803.67 1913.32 1758.1 2010.8 1677.13"/><polygon class="cls-22" points="2106.75 1597.42 2210.3 1642.99 2112.82 1723.96 2009.27 1678.39 2106.75 1597.42"/><polygon class="cls-22" points="2202.7 1517.71 2306.25 1563.29 2208.77 1644.26 2105.23 1598.68 2202.7 1517.71"/><polygon class="cls-9" points="2298.66 1438.01 2402.2 1483.58 2304.73 1564.55 2201.18 1518.98 2298.66 1438.01"/><polygon class="cls-9" points="2394.61 1358.31 2498.16 1403.88 2400.68 1484.85 2297.13 1439.28 2394.61 1358.31"/><polygon class="cls-10" points="2490.57 1278.6 2594.11 1324.17 2496.63 1405.14 2393.09 1359.57 2490.57 1278.6"/><polygon class="cls-10" points="2586.52 1198.89 2690.06 1244.47 2592.59 1325.44 2489.04 1279.87 2586.52 1198.89"/><path class="cls-11" d="M1609.19,577.86c15-12.42,14.22-28.2-1.67-35.2L1446.88,472c-15.89-7-41-2.57-55.91,9.86s-14.19,28.18,1.7,35.17l160.63,70.7C1569.2,594.69,1594.24,590.28,1609.19,577.86Z"/></g><ellipse class="cls-32" cx="2244.23" cy="1141.72" rx="804.96" ry="807.54"/><ellipse class="cls-33" cx="2244.23" cy="1141.72" rx="804.96" ry="807.54"/><ellipse class="cls-33" cx="2421.92" cy="692.86" rx="169.84" ry="421.14" transform="translate(934.69 2726.06) rotate(-69.78)"/><path class="cls-34" d="M3245,1629.49l29.19,15.79-83.53,193.55-28.2-15Z"/><path class="cls-35" d="M3266.59,1651.41l16.91,7.55a842.25,842.25,0,0,0-76.37,180.73l-16.38-9.27C3208.15,1767.45,3233.11,1707.63,3266.59,1651.41Z"/><path class="cls-34" d="M3280.45,1659.44l1322.06,628.61L4545,2502.29l-1345-668S3214,1742.1,3280.45,1659.44Z"/><path class="cls-36" d="M3238.18,1724.83c-19.25,70.6,87,112.11,157.49,140.29,29.82,11.92,59,25.31,88.5,38,23,9.94,45.63,20.81,68.61,30.82,27.69,12,54.53,26.71,81.34,40.61,41,21.25,80.6,45.4,117.48,73.19,4.14,3.13,34.9,29.57,29.68,33.95-8.36,7-26.3,9.65-36.36,12.75q-6.71,2-13.47,3.79L3200,1834.32S3207.6,1784.25,3238.18,1724.83Zm38.08-60.1,1.48,2.33c-4.61,4.35-8.78,8.6-12.56,12.79Q3270.46,1672.25,3276.26,1664.73Z"/><path class="cls-8" d="M3543.25,2023.6s-60.42-104.59,74.4-222.6L4648,2286.72,4546.7,2525Z"/><path class="cls-37" d="M3535.92,1919.35c9.8-34.83,33-75.71,81.73-118.35L4648,2286.72l-65.05,153c-14.85-8.67-26.79-16-34.6-20.95-201.61-126.94-395.47-268.66-614.33-365.35-37.27-16.47-200.87-81.25-246-95.78C3652.23,1946.14,3581.24,1934.54,3535.92,1919.35Z"/><ellipse class="cls-38" cx="3799.05" cy="1941.07" rx="37.53" ry="209.74" transform="translate(496.91 4642.25) rotate(-66.35)"/><ellipse class="cls-39" cx="4046.87" cy="2053.91" rx="22.15" ry="114.84" transform="translate(541.91 4936.79) rotate(-66.35)"/><path class="cls-40" d="M3538.94,1909.71c48.51,47.39,151.24,102.17,161,108.3,81.77,51.4,162.1,104.45,246,152.26,54.71,31.16,114.77,52.31,169.85,83.08,97.12,54.25,193.07,110.08,293.68,157.6,52.45,24.78,99.57,57.35,148.31,88l-11.07,26L3543.25,2023.6S3516,1976.44,3538.94,1909.71Z"/><path class="cls-41" d="M2222.15,288.72c484.84,0,878.46,379.32,878.46,846.54S2707,1981.79,2222.15,1981.79s-878.46-379.32-878.46-846.53S1737.32,288.72,2222.15,288.72Zm0,87c435,0,788.13,340.31,788.13,759.49s-353.14,759.48-788.13,759.48S1434,1554.42,1434,1135.26,1787.17,375.77,2222.15,375.77Z"/><path class="cls-42" d="M2233.52,213.44c532.75,0,965.27,416.81,965.27,930.2s-432.52,930.19-965.27,930.19S1268.25,1657,1268.25,1143.64,1700.77,213.44,2233.52,213.44Zm0,95.65c478,0,866,374,866,834.55s-388,834.53-866,834.53-866-374-866-834.53S1755.55,309.09,2233.52,309.09Z"/><path class="cls-43" d="M2215,241.94c524.54,0,950.4,410.38,950.4,915.86s-425.86,915.86-950.4,915.86-950.4-410.38-950.4-915.86S1690.49,241.94,2215,241.94Zm0,94.18c470.61,0,852.67,368.18,852.67,821.68S2685.64,1979.48,2215,1979.48s-852.67-368.19-852.67-821.68S1744.43,336.12,2215,336.12Z"/><path class="cls-35" d="M2215,267c510.2,0,924.42,399.16,924.42,890.82S2725.24,2048.61,2215,2048.61s-924.41-399.16-924.41-890.81S1704.84,267,2215,267Zm0,91.6c457.74,0,829.36,358.12,829.36,799.22S2672.78,1957,2215,1957s-829.35-358.12-829.35-799.2S1757.31,358.58,2215,358.58Z"/><path class="cls-35" d="M3105.43,1341.53s9.39,200.1,149.43,293.58c0,0-59.73,86.24-87.22,210.84,0,0-200.32-101.62-405.67,14.65Z"/><path class="cls-44" d="M2914.8,1758.12s118.89-77.18,176.83-258.88C3091.63,1499.24,3073.26,1689.64,2914.8,1758.12Z"/><path class="cls-43" d="M3173.59,1352.94l-55.41-6.75s-58.09,162.69,138.56,289.69l6-19.05S3146.72,1520,3173.59,1352.94Z"/><path class="cls-45" d="M1448,660.69C1614.16,423.25,1895.81,267,2215,267c286.68,0,543.06,126,712.67,323.67-53.21,2.44-106.46-2.21-134.5-5.63C2643.77,444.92,2439.78,358.58,2215,358.58a867.87,867.87,0,0,0-100,5.76c-46.45-37.17-96.61-59.2-172.92-30.1C1833,375.86,1744.5,458.76,1667,558.13c-121.55,103.26-211.49,240.23-254,395.65-28,44.17-56.16,85.74-85.25,122.69-5.28,6.71-18.52,24-36.4,45.94a861.27,861.27,0,0,1,12.26-114.05Z"/><ellipse class="cls-46" cx="1349.69" cy="1116.38" rx="184.32" ry="24.17" transform="translate(137.6 2380.81) rotate(-85.81)"/></g></g></svg>